<?xml version="1.0" encoding="UTF-8" ?>
<!DOCTYPE svg PUBLIC "-//W3C//DTD SVG 1.1//EN" "http://www.w3.org/Graphics/SVG/1.1/DTD/svg11.dtd">
<svg width="1225pt" height="816pt" viewBox="0 0 1225 816" version="1.1" xmlns="http://www.w3.org/2000/svg">
<path fill="#397db9" d=" M 0.00 0.00 L 1225.00 0.00 L 1225.00 816.00 L 0.00 816.00 L 0.00 0.00 Z" />
<path fill="#d2d3d5" d=" M 299.79 199.95 C 303.96 192.97 311.75 188.23 319.98 188.48 C 514.97 188.47 709.96 188.48 904.95 188.48 C 917.17 187.94 928.26 198.74 928.15 210.95 C 928.26 340.96 928.16 470.98 928.20 600.99 C 928.16 603.97 927.62 606.92 927.06 609.84 C 940.96 609.84 954.86 609.82 968.77 609.84 C 968.56 614.64 968.55 619.45 968.76 624.25 C 796.85 624.25 624.95 624.24 453.04 624.26 C 388.39 624.17 323.73 624.39 259.07 624.15 C 259.19 619.37 259.21 614.60 259.12 609.84 C 272.05 609.84 284.97 609.83 297.90 609.84 C 297.33 606.58 296.79 603.29 296.79 599.97 C 296.83 470.63 296.78 341.29 296.81 211.95 C 296.80 207.77 297.82 203.64 299.79 199.95 Z" />
<path fill="#181818" d=" M 298.52 211.06 C 298.10 200.03 307.98 189.85 319.06 190.23 C 509.35 190.23 699.64 190.21 889.93 190.20 C 896.09 190.29 902.27 190.01 908.43 190.35 C 901.33 191.25 894.17 190.73 887.04 190.82 C 832.02 190.88 777.01 190.83 721.99 190.84 C 710.67 190.95 699.34 190.57 688.04 191.11 C 691.19 198.90 694.80 206.50 698.09 214.24 C 576.72 214.27 455.35 214.24 333.98 214.25 C 329.99 214.30 325.98 214.05 321.99 214.38 C 320.09 214.35 318.59 216.17 318.62 218.00 C 318.32 224.04 318.63 230.10 318.53 236.15 C 318.52 351.22 318.52 466.30 318.53 581.37 C 498.67 581.38 678.81 581.37 858.96 581.38 C 861.31 586.92 863.59 592.51 866.21 597.94 C 866.08 598.62 865.81 599.97 865.68 600.65 C 863.47 600.79 861.27 600.94 859.08 601.09 C 858.99 601.89 858.79 603.48 858.69 604.28 C 858.38 603.25 858.06 602.24 857.73 601.25 C 816.83 600.95 775.93 601.25 735.03 601.13 C 611.62 601.19 488.21 601.06 364.80 601.19 C 365.17 602.70 364.64 605.36 367.06 604.75 C 530.05 604.79 693.05 604.80 856.04 604.74 C 856.66 605.88 857.23 607.06 857.87 608.22 C 858.33 608.51 859.25 609.08 859.71 609.37 L 860.38 609.78 C 796.01 609.91 731.65 609.80 667.28 609.84 C 649.21 609.79 631.14 609.83 613.07 609.82 C 594.88 609.82 576.69 609.79 558.50 609.83 C 493.43 609.85 428.35 609.83 363.28 609.85 C 363.62 606.89 363.86 603.93 364.06 600.97 C 345.73 600.58 327.38 601.06 309.05 600.74 C 304.62 600.81 301.61 597.19 298.53 594.57 C 298.52 466.73 298.53 338.89 298.52 211.06 Z" />
<path fill="#393939" d=" M 688.04 191.11 C 699.34 190.57 710.67 190.95 721.99 190.84 C 777.01 190.83 832.02 190.88 887.04 190.82 C 894.17 190.73 901.33 191.25 908.43 190.35 C 916.81 190.98 924.57 198.00 925.90 206.31 C 924.78 212.47 925.27 218.74 925.22 224.96 C 925.19 346.95 925.37 468.94 925.23 590.93 C 925.74 595.67 922.16 601.01 917.04 600.67 C 900.54 600.71 884.02 600.69 867.52 600.62 C 867.07 599.72 866.63 598.83 866.21 597.94 C 863.59 592.51 861.31 586.92 858.96 581.38 C 874.79 581.37 890.63 581.38 906.47 581.37 C 906.49 466.23 906.47 351.09 906.48 235.95 C 906.32 229.65 906.88 223.30 906.24 217.02 C 905.79 214.57 903.05 214.12 901.00 214.22 C 833.36 214.24 765.73 214.20 698.09 214.24 C 694.80 206.50 691.19 198.90 688.04 191.11 Z" />
<path fill="#2b5e8b" d=" M 293.19 205.18 C 295.20 203.22 296.97 200.79 299.79 199.95 C 297.82 203.64 296.80 207.77 296.81 211.95 C 296.78 341.29 296.83 470.63 296.79 599.97 C 296.79 603.29 297.33 606.58 297.90 609.84 C 284.97 609.83 272.05 609.84 259.12 609.84 C 247.79 609.84 236.46 609.82 225.14 609.85 C 224.64 590.58 225.06 571.29 224.98 552.02 C 224.89 465.35 225.05 378.68 224.93 292.00 C 225.05 285.86 224.23 279.41 226.65 273.59 C 227.85 270.44 229.78 267.59 232.23 265.27 C 243.64 254.34 254.48 242.82 266.09 232.10 C 275.17 223.18 284.13 214.12 293.19 205.18 Z" />
<path fill="#31aed8" d=" M 610.09 202.84 C 611.58 202.21 613.37 200.82 614.37 202.95 C 614.93 204.54 613.18 205.96 611.71 205.43 C 611.31 204.79 610.49 203.49 610.09 202.84 Z" />
<path fill="#242424" d=" M 925.22 224.96 C 925.27 218.74 924.78 212.47 925.90 206.31 C 926.23 207.86 926.43 209.42 926.50 211.01 C 926.52 341.01 926.49 471.02 926.52 601.02 C 926.60 604.02 925.82 606.93 925.02 609.79 C 903.47 609.86 881.92 609.89 860.38 609.78 L 859.71 609.37 C 859.32 607.68 859.00 605.97 858.69 604.28 C 858.79 603.48 858.99 601.89 859.08 601.09 C 861.27 600.94 863.47 600.79 865.68 600.65 C 865.81 599.97 866.08 598.62 866.21 597.94 C 866.63 598.83 867.07 599.72 867.52 600.62 C 884.02 600.69 900.54 600.71 917.04 600.67 C 922.16 601.01 925.74 595.67 925.23 590.93 C 925.37 468.94 925.19 346.95 925.22 224.96 Z" />
<path fill="#d2d2d2" d=" M 318.62 218.00 C 318.59 216.17 320.09 214.35 321.99 214.38 C 325.98 214.05 329.99 214.30 333.98 214.25 C 455.35 214.24 576.72 214.27 698.09 214.24 C 765.73 214.20 833.36 214.24 901.00 214.22 C 903.05 214.12 905.79 214.57 906.24 217.02 C 906.88 223.30 906.32 229.65 906.48 235.95 C 900.38 236.27 894.27 236.19 888.17 236.26 C 760.74 236.29 633.32 236.25 505.89 236.26 C 487.94 236.26 470.00 236.26 452.05 236.26 C 413.80 236.26 375.54 236.26 337.28 236.26 C 331.03 236.28 324.78 236.33 318.53 236.15 C 318.63 230.10 318.32 224.04 318.62 218.00 Z" />
<path fill="#e76d6b" d=" M 321.13 219.13 C 322.05 218.20 322.46 216.16 324.13 216.32 C 326.80 215.71 327.79 220.46 325.01 220.85 C 323.43 221.56 322.27 219.84 321.13 219.13 Z" />
<path fill="#dfbc43" d=" M 331.31 216.46 C 334.44 214.71 336.39 220.58 333.00 220.86 C 330.07 222.04 329.00 217.53 331.31 216.46 Z" />
<path fill="#36d488" d=" M 338.50 220.37 C 337.60 218.55 338.59 215.69 341.01 216.34 C 343.33 216.38 342.54 219.21 342.79 220.72 C 341.35 220.72 339.86 220.95 338.50 220.37 Z" />
<path fill="#b8b8b8" d=" M 899.68 219.68 C 900.49 218.17 901.43 216.65 903.39 216.57 C 903.25 219.48 900.62 221.14 898.76 222.99 C 897.18 223.50 897.45 221.41 897.10 220.54 C 897.75 220.32 899.04 219.90 899.68 219.68 Z" />
<path fill="#e6e6e6" d=" M 322.05 224.14 C 328.58 223.89 335.15 223.61 341.65 224.43 C 341.43 227.07 343.00 230.75 340.73 232.68 C 334.55 233.30 328.30 232.82 322.10 232.83 C 321.79 229.94 321.78 227.03 322.05 224.14 Z" />
<path fill="#ffffff" d=" M 345.26 224.24 C 350.47 223.69 355.71 223.86 360.94 223.87 C 477.97 223.81 594.99 224.04 712.01 223.75 C 715.71 223.80 719.43 223.49 723.12 223.98 C 725.19 226.32 723.91 229.98 723.84 232.83 C 714.23 233.86 704.59 232.65 694.96 232.89 C 589.28 232.96 483.61 232.84 377.94 232.97 C 367.06 232.62 356.16 233.29 345.30 232.70 C 344.95 229.89 344.94 227.05 345.26 224.24 Z" />
<path fill="#ffffff" d=" M 731.61 228.99 C 731.08 225.47 734.83 223.35 737.93 223.76 C 790.31 223.82 842.69 223.72 895.06 223.81 C 897.62 223.56 899.53 225.68 900.11 227.98 C 900.15 229.66 899.02 231.05 898.44 232.55 C 896.61 232.82 894.79 233.11 892.96 233.20 C 841.31 233.20 789.64 233.20 737.98 233.20 C 735.26 233.41 731.75 232.15 731.61 228.99 Z" />
<path fill="#b0b0b0" d=" M 325.21 228.15 C 326.45 227.73 327.69 227.32 328.95 226.93 C 328.95 227.85 328.95 229.71 328.95 230.64 C 327.56 230.02 326.12 229.43 325.21 228.15 Z" />
<path fill="#cdcdcd" d=" M 335.12 227.55 C 336.25 226.44 338.53 228.18 337.36 229.47 C 336.19 230.84 333.76 228.89 335.12 227.55 Z" />
<path fill="#e1e1e1" d=" M 350.14 227.32 C 351.59 226.57 353.55 228.86 351.56 229.57 C 350.04 230.60 348.24 228.03 350.14 227.32 Z" />
<path fill="#ffffff" d=" M 318.53 236.15 C 324.78 236.33 331.03 236.28 337.28 236.26 C 337.30 246.17 337.29 256.07 337.29 265.98 C 375.54 266.18 413.80 266.10 452.05 266.11 C 470.02 265.99 487.99 266.36 505.95 265.98 C 620.95 266.26 735.98 266.04 850.99 266.11 C 863.39 265.98 875.80 266.45 888.18 265.80 C 888.17 255.95 888.19 246.10 888.17 236.26 C 894.27 236.19 900.38 236.27 906.48 235.95 C 906.47 351.09 906.49 466.23 906.47 581.37 C 890.63 581.38 874.79 581.37 858.96 581.38 C 678.81 581.37 498.67 581.38 318.53 581.37 C 318.52 466.30 318.52 351.22 318.53 236.15 Z" />
<path fill="#0099cc" d=" M 337.28 236.26 C 375.54 236.26 413.80 236.26 452.05 236.26 C 452.15 246.21 452.16 256.16 452.05 266.11 C 413.80 266.10 375.54 266.18 337.29 265.98 C 337.29 256.07 337.30 246.17 337.28 236.26 Z" />
<path fill="#397db9" d=" M 452.05 236.26 C 470.00 236.26 487.94 236.26 505.89 236.26 C 505.86 246.17 505.83 256.07 505.95 265.98 C 487.99 266.36 470.02 265.99 452.05 266.11 C 452.16 256.16 452.15 246.21 452.05 236.26 Z" />
<path fill="#0099cc" d=" M 505.89 236.26 C 633.32 236.25 760.74 236.29 888.17 236.26 C 888.19 246.10 888.17 255.95 888.18 265.80 C 875.80 266.45 863.39 265.98 850.99 266.11 C 735.98 266.04 620.95 266.26 505.95 265.98 C 505.83 256.07 505.86 246.17 505.89 236.26 Z" />
<path fill="#6bb642" d=" M 846.09 242.46 C 857.91 242.19 869.75 242.44 881.59 242.36 C 881.53 247.72 881.74 253.08 881.43 258.43 C 869.51 258.21 857.59 258.41 845.67 258.32 C 845.95 253.08 845.01 247.49 846.09 242.46 Z" />
<path fill="#384f5f" d=" M 352.62 244.75 C 355.10 244.74 357.61 244.57 360.08 244.96 C 362.74 245.54 363.28 248.91 362.26 251.07 C 360.79 253.39 357.67 252.81 355.35 253.32 C 355.31 254.92 355.28 256.53 355.24 258.14 C 354.66 258.02 353.49 257.79 352.90 257.67 C 352.11 253.42 352.75 249.05 352.62 244.75 Z" />
<path fill="#3a4c5b" d=" M 373.71 244.56 C 374.32 244.67 375.54 244.91 376.15 245.02 C 376.28 249.17 376.83 253.56 375.91 257.58 C 375.37 257.74 374.30 258.04 373.77 258.19 C 373.53 253.65 373.60 249.10 373.71 244.56 Z" />
<path fill="#394c5a" d=" M 377.76 244.59 C 378.38 244.70 379.63 244.91 380.25 245.02 C 380.63 249.06 380.54 253.15 380.26 257.20 C 379.68 257.47 378.51 258.02 377.93 258.30 C 377.59 253.74 377.72 249.16 377.76 244.59 Z" />
<path fill="#0099cc" d=" M 355.31 246.94 C 356.87 247.07 360.21 246.47 359.79 249.04 C 359.83 251.35 356.78 250.52 355.32 250.94 C 355.31 249.60 355.31 248.27 355.31 246.94 Z" />
<path fill="#3e4855" d=" M 366.33 248.34 C 369.40 247.21 373.22 249.52 372.76 252.98 C 373.12 256.11 369.88 258.54 366.93 257.72 C 362.31 257.21 361.98 249.53 366.33 248.34 Z" />
<path fill="#3e4856" d=" M 387.71 248.63 C 388.28 248.53 389.42 248.33 389.99 248.23 C 389.04 252.27 387.66 256.22 385.88 259.96 C 385.14 261.92 381.26 262.42 380.95 259.89 C 381.74 259.63 383.32 259.11 384.11 258.85 C 383.44 255.38 381.86 252.19 380.91 248.80 C 384.15 247.25 384.20 252.52 385.71 254.34 C 386.41 252.44 387.07 250.54 387.71 248.63 Z" />
<path fill="#5fbedd" d=" M 410.52 249.22 C 411.80 249.31 413.09 249.39 414.38 249.43 C 414.28 250.92 414.20 252.41 414.13 253.90 C 413.02 253.25 411.08 253.49 410.58 252.13 C 410.57 251.40 410.54 249.95 410.52 249.22 Z" />
<path fill="#7bc8e0" d=" M 415.43 249.34 C 417.36 247.93 417.03 253.01 415.33 252.60 C 414.67 251.52 414.71 250.43 415.43 249.34 Z" />
<path fill="#60bede" d=" M 420.78 249.20 C 421.97 249.28 423.17 249.37 424.36 249.46 C 423.79 250.98 423.24 252.50 422.69 254.03 C 422.44 253.56 421.94 252.64 421.70 252.18 C 421.21 252.62 420.23 253.50 419.74 253.94 C 419.20 252.37 418.76 250.79 418.41 249.18 C 418.99 249.53 420.15 250.24 420.73 250.59 C 420.74 250.24 420.77 249.54 420.78 249.20 Z" />
<path fill="#76a7cd" d=" M 455.18 248.95 C 456.41 248.96 457.22 249.62 457.61 250.92 C 457.80 250.52 458.16 249.71 458.35 249.31 C 463.91 249.29 469.51 249.60 475.04 248.85 C 474.73 250.53 474.65 252.24 474.70 253.94 C 474.11 253.89 472.94 253.79 472.35 253.75 C 472.04 252.87 471.74 251.99 471.45 251.12 C 471.29 251.72 470.98 252.91 470.82 253.50 C 469.60 253.48 468.38 253.47 467.17 253.47 C 466.98 252.74 466.80 252.01 466.64 251.29 C 465.70 254.94 462.16 253.22 459.59 253.01 C 457.64 252.98 455.73 253.34 453.81 253.59 C 454.16 252.01 454.45 250.41 455.18 248.95 Z" />
<path fill="#90b6d6" d=" M 476.82 248.97 C 477.67 249.00 479.36 249.07 480.21 249.10 C 480.29 250.44 480.37 251.78 480.46 253.13 C 479.22 252.92 478.00 252.73 476.76 252.56 C 476.78 251.36 476.79 250.16 476.82 248.97 Z" />
<path fill="#7fa8cc" d=" M 483.03 249.01 C 486.49 249.34 489.96 249.31 493.43 249.39 C 493.89 250.84 494.37 252.30 494.85 253.76 C 492.87 253.54 490.88 253.45 488.90 253.58 C 487.95 252.98 487.00 252.38 486.07 251.78 C 485.03 252.31 483.99 252.85 482.97 253.38 C 482.98 251.92 483.00 250.46 483.03 249.01 Z" />
<path fill="#7ca9d0" d=" M 496.06 248.55 C 497.02 250.34 497.98 252.15 498.75 254.04 C 497.70 253.94 496.71 253.67 495.79 253.24 C 495.82 251.67 495.91 250.11 496.06 248.55 Z" />
<path fill="#75a4ce" d=" M 499.58 248.90 C 500.40 248.96 502.05 249.07 502.87 249.13 C 502.98 250.50 503.09 251.87 503.21 253.24 C 502.13 253.51 501.05 253.77 499.98 254.04 C 499.81 252.32 499.66 250.62 499.58 248.90 Z" />
<path fill="#65c0df" d=" M 514.72 249.09 C 517.51 249.70 520.38 249.51 523.20 249.22 C 522.68 250.65 522.15 252.08 521.64 253.53 C 520.85 252.24 520.06 250.96 519.26 249.69 C 519.19 250.59 519.06 252.40 519.00 253.31 C 517.56 253.32 516.14 253.32 514.71 253.33 C 514.71 251.92 514.71 250.50 514.72 249.09 Z" />
<path fill="#58b4dd" d=" M 525.97 248.95 C 529.31 249.37 532.67 249.33 536.03 249.40 C 536.62 250.90 537.24 252.39 537.88 253.87 C 535.90 253.45 533.87 253.38 531.88 253.75 C 530.93 253.07 529.99 252.37 529.06 251.68 C 528.03 252.27 527.01 252.86 526.00 253.45 C 525.98 251.95 525.97 250.45 525.97 248.95 Z" />
<path fill="#56badb" d=" M 538.86 253.85 C 538.81 252.08 538.66 250.25 539.41 248.58 C 540.04 250.38 540.73 252.18 541.68 253.84 C 540.98 253.84 539.57 253.85 538.86 253.85 Z" />
<path fill="#4db7db" d=" M 542.63 248.82 C 543.42 248.91 544.99 249.10 545.78 249.19 C 545.91 250.53 546.04 251.87 546.17 253.21 C 545.08 253.50 543.99 253.80 542.91 254.10 C 542.67 252.34 542.54 250.58 542.63 248.82 Z" />
<path fill="#70c4e0" d=" M 548.74 248.97 C 549.56 249.00 551.20 249.04 552.02 249.07 C 552.14 250.46 552.27 251.86 552.41 253.25 C 551.17 252.96 549.94 252.71 548.68 252.57 C 548.70 251.37 548.72 250.17 548.74 248.97 Z" />
<path fill="#6ac6e2" d=" M 553.46 249.37 C 553.97 248.54 556.09 248.93 555.32 250.07 C 554.37 250.80 554.98 252.39 553.89 252.94 C 552.40 252.59 552.45 250.23 553.46 249.37 Z" />
<path fill="#4cb7db" d=" M 557.00 249.45 C 558.64 249.25 560.29 249.22 561.94 249.32 C 562.30 250.22 562.69 251.12 563.08 252.02 C 563.57 250.80 564.18 249.64 564.91 248.55 C 565.09 250.37 565.16 252.26 564.09 253.84 C 561.79 253.61 559.49 253.42 557.18 253.42 C 557.11 252.09 557.04 250.77 557.00 249.45 Z" />
<path fill="#4fb7d9" d=" M 566.01 248.46 C 566.60 249.54 567.11 250.65 567.54 251.81 C 568.03 252.44 568.53 253.06 569.05 253.68 C 568.26 253.75 566.69 253.89 565.90 253.97 C 565.88 252.13 565.90 250.29 566.01 248.46 Z" />
<path fill="#6ac6e3" d=" M 569.77 249.15 C 572.13 247.69 572.31 252.32 570.49 252.56 C 569.81 251.64 569.17 250.23 569.77 249.15 Z" />
<path fill="#4db7db" d=" M 572.96 249.51 C 573.99 249.26 575.02 249.02 576.07 248.79 C 576.41 250.27 576.74 251.75 577.08 253.24 C 575.80 253.51 574.50 253.60 573.21 253.49 C 573.11 252.16 573.03 250.83 572.96 249.51 Z" />
<path fill="#ffffff" d=" M 588.56 249.29 C 588.79 249.30 589.24 249.32 589.47 249.32 C 589.49 250.08 589.54 251.59 589.57 252.35 C 590.54 251.29 591.32 250.10 591.91 248.78 C 591.78 249.57 591.53 251.15 591.40 251.94 C 592.24 251.86 593.91 251.71 594.75 251.63 C 594.66 250.93 594.49 249.52 594.41 248.82 C 595.00 249.81 595.62 250.78 596.27 251.75 C 597.78 251.84 597.73 249.73 598.53 248.84 C 598.64 249.67 598.87 251.32 598.98 252.14 L 600.53 250.01 C 600.45 250.49 600.27 251.45 600.19 251.92 L 602.66 251.68 C 602.61 251.09 602.49 249.91 602.44 249.32 C 602.71 249.33 603.24 249.34 603.51 249.35 C 603.52 250.06 603.54 251.48 603.56 252.19 C 605.19 250.75 607.02 249.51 609.12 248.82 C 607.67 249.78 606.22 250.73 604.86 251.81 C 605.48 252.01 606.73 252.42 607.36 252.62 C 604.71 252.36 601.98 251.96 599.42 252.95 C 598.85 252.40 598.28 251.84 597.72 251.29 L 597.30 252.78 C 594.36 252.55 591.41 252.29 588.47 252.48 C 588.49 251.41 588.53 250.35 588.56 249.29 Z" />
<path fill="#54b6d7" d=" M 607.07 253.39 C 607.74 250.46 610.37 249.09 613.10 248.70 C 613.18 250.41 613.29 252.12 613.42 253.83 C 611.30 253.68 609.18 253.53 607.07 253.39 Z" />
<path fill="#69c2e0" d=" M 616.86 248.78 C 617.35 249.04 618.32 249.56 618.81 249.82 C 620.92 249.42 623.07 249.27 625.22 249.33 C 624.73 250.74 624.21 252.13 623.72 253.54 C 622.88 252.24 622.07 250.94 621.24 249.64 C 621.19 250.56 621.08 252.38 621.03 253.30 C 619.60 253.31 618.18 253.32 616.76 253.33 C 616.78 251.81 616.81 250.29 616.86 248.78 Z" />
<path fill="#59bcdd" d=" M 627.79 248.92 C 631.18 249.41 634.60 249.45 638.03 249.32 C 638.26 250.98 638.50 252.64 638.78 254.30 C 638.06 253.67 637.32 253.07 636.57 252.51 C 634.71 254.15 632.21 254.02 631.48 251.33 C 630.24 252.05 629.00 252.77 627.77 253.49 C 627.77 251.97 627.77 250.44 627.79 248.92 Z" />
<path fill="#47b6da" d=" M 642.94 254.27 C 639.74 254.60 639.08 249.86 641.58 248.63 C 642.06 250.50 642.53 252.38 642.94 254.27 Z" />
<path fill="#4db8db" d=" M 644.21 249.16 C 644.94 249.10 646.40 248.99 647.13 248.93 C 647.47 250.36 647.80 251.79 648.14 253.23 C 646.83 253.59 645.48 253.67 644.15 253.44 C 644.15 252.01 644.16 250.59 644.21 249.16 Z" />
<path fill="#70c6e2" d=" M 661.20 248.51 C 662.31 249.91 663.08 251.53 663.70 253.21 C 662.21 252.88 660.71 252.75 659.20 252.69 C 659.85 251.29 660.51 249.89 661.20 248.51 Z" />
<path fill="#31aed8" d=" M 663.62 249.00 C 668.28 249.39 672.98 249.06 677.68 249.10 C 677.47 251.03 676.77 252.83 675.38 254.22 C 675.22 253.79 674.90 252.91 674.73 252.48 C 672.07 254.65 668.12 253.82 665.16 252.69 C 664.82 252.88 664.14 253.28 663.80 253.48 C 663.73 251.98 663.67 250.49 663.62 249.00 Z" />
<path fill="#7ac7e0" d=" M 678.39 249.37 C 680.30 247.93 679.93 253.09 678.29 252.71 C 677.64 251.60 677.67 250.48 678.39 249.37 Z" />
<path fill="#75c6e1" d=" M 681.85 248.80 C 683.20 248.90 684.43 249.33 685.54 250.07 C 684.90 250.06 683.61 250.03 682.97 250.02 L 682.88 251.03 C 683.40 250.91 684.46 250.65 684.98 250.53 C 685.05 251.17 685.19 252.44 685.26 253.08 C 684.10 252.76 682.93 252.57 681.73 252.69 C 681.77 251.39 681.80 250.09 681.85 248.80 Z" />
<path fill="#5bbede" d=" M 685.75 249.03 C 686.54 249.01 688.12 248.96 688.91 248.94 C 688.75 250.62 688.62 252.30 688.52 253.98 C 687.54 253.74 686.57 253.49 685.60 253.26 C 685.64 251.84 685.69 250.44 685.75 249.03 Z" />
<path fill="#51badc" d=" M 690.06 249.07 C 691.41 249.05 692.77 249.04 694.14 249.04 C 694.04 250.66 694.95 253.25 692.74 253.79 C 691.70 253.70 690.67 253.56 689.66 253.37 C 689.78 251.93 689.91 250.50 690.06 249.07 Z" />
<path fill="#ffffff" d=" M 697.47 249.25 C 698.83 249.61 700.19 249.98 701.58 250.33 C 702.83 249.67 705.74 248.39 704.81 251.88 C 705.60 250.91 706.38 249.92 707.18 248.95 C 707.17 250.15 707.16 251.36 707.15 252.58 C 707.64 252.77 708.61 253.16 709.10 253.35 C 708.44 253.32 707.12 253.26 706.46 253.23 L 706.74 251.33 C 705.53 252.07 704.37 252.90 703.05 253.43 C 702.23 252.74 701.49 252.00 700.73 251.27 C 699.51 251.65 698.38 252.23 697.22 252.73 C 697.30 251.57 697.39 250.41 697.47 249.25 Z" />
<path fill="#57bcdc" d=" M 709.86 249.05 L 710.71 249.08 C 711.28 250.80 711.97 252.49 712.77 254.13 C 711.72 253.94 710.73 253.62 709.80 253.17 C 709.77 251.80 709.79 250.42 709.86 249.05 Z" />
<path fill="#4db8db" d=" M 713.59 248.89 C 714.41 248.94 716.03 249.04 716.85 249.09 C 716.97 250.47 717.09 251.86 717.21 253.24 C 716.14 253.50 715.07 253.77 714.02 254.04 C 713.81 252.32 713.63 250.62 713.59 248.89 Z" />
<path fill="#70c5e1" d=" M 719.84 248.98 C 720.63 249.00 722.22 249.05 723.02 249.08 C 723.08 250.37 723.15 251.67 723.23 252.98 C 722.07 252.82 720.90 252.72 719.73 252.66 C 719.76 251.43 719.79 250.20 719.84 248.98 Z" />
<path fill="#59bdde" d=" M 723.81 249.04 C 724.60 249.01 726.17 248.96 726.95 248.93 C 726.68 250.61 726.56 252.30 726.52 254.00 C 725.57 253.77 724.62 253.54 723.68 253.32 C 723.71 251.89 723.76 250.46 723.81 249.04 Z" />
<path fill="#4db7db" d=" M 728.49 249.48 C 729.24 249.28 730.73 248.88 731.48 248.69 C 731.18 249.22 730.59 250.30 730.29 250.84 C 731.20 250.41 732.09 249.96 733.03 249.54 C 733.44 250.42 733.85 251.30 734.28 252.19 C 734.47 251.45 734.84 249.97 735.03 249.23 C 735.69 249.22 737.02 249.20 737.68 249.19 C 738.08 250.76 738.50 252.33 738.93 253.89 C 735.34 253.25 731.69 253.74 728.08 253.36 C 728.15 252.06 728.22 250.75 728.49 249.48 Z" />
<path fill="#73c6e1" d=" M 740.69 249.14 C 743.13 247.70 742.93 252.34 741.33 252.69 C 740.66 251.72 740.02 250.24 740.69 249.14 Z" />
<path fill="#2eacd6" d=" M 743.66 248.96 C 744.57 248.94 746.39 248.91 747.30 248.89 C 747.26 250.60 747.25 252.31 747.26 254.03 C 746.40 253.99 744.69 253.93 743.83 253.90 C 743.76 252.25 743.70 250.60 743.66 248.96 Z" />
<path fill="#0099cc" d=" M 366.65 250.19 C 368.48 250.05 370.71 250.69 370.34 253.04 C 370.60 255.31 368.43 255.81 366.67 255.76 C 366.40 255.07 365.88 253.68 365.61 252.99 C 365.87 252.29 366.39 250.89 366.65 250.19 Z" />
<path fill="#3c7eba" d=" M 478.31 250.24 C 478.77 250.71 478.77 250.71 478.31 250.24 Z" />
<path fill="#3b7eba" d=" M 489.11 250.36 C 492.45 250.55 487.52 253.31 489.11 250.36 Z" />
<path fill="#15a0d0" d=" M 532.24 250.18 C 533.62 250.25 533.66 252.69 532.24 252.71 C 530.86 252.62 530.81 250.21 532.24 250.18 Z" />
<path fill="#019ace" d=" M 550.30 250.30 C 550.74 250.77 550.74 250.77 550.30 250.30 Z" />
<path fill="#0c9ecf" d=" M 633.23 250.27 C 634.82 249.75 635.35 250.33 634.84 251.99 C 633.23 252.50 632.69 251.93 633.23 250.27 Z" />
<path fill="#059ed2" d=" M 691.94 250.36 C 695.27 250.57 690.33 253.30 691.94 250.36 Z" />
<path fill="#0099cc" d=" M 698.50 250.50 C 698.76 250.77 698.76 250.77 698.50 250.50 Z" />
<path fill="#0d9ecf" d=" M 702.28 252.31 C 701.51 250.55 702.07 249.89 703.96 250.33 C 704.24 251.68 703.68 252.34 702.28 252.31 Z" />
<path fill="#0099cd" d=" M 721.31 250.27 C 721.71 250.76 721.71 250.76 721.31 250.27 Z" />
<path fill="#a6d6a0" d=" M 853.29 250.44 C 854.62 250.67 854.86 251.40 854.01 252.61 C 852.66 252.38 852.42 251.66 853.29 250.44 Z" />
<path fill="#abd59b" d=" M 856.09 250.45 C 857.41 250.65 857.63 251.38 856.78 252.62 C 855.43 252.41 855.20 251.68 856.09 250.45 Z" />
<path fill="#a1cc89" d=" M 857.58 249.63 C 858.50 249.63 860.35 249.64 861.27 249.64 C 862.01 250.84 862.73 252.03 863.51 253.22 C 861.56 253.37 859.60 253.35 857.67 253.30 C 857.65 252.38 857.60 250.54 857.58 249.63 Z" />
<path fill="#a1d299" d=" M 864.30 250.44 C 865.63 250.62 865.87 251.33 865.01 252.56 C 863.65 252.36 863.41 251.65 864.30 250.44 Z" />
<path fill="#aad190" d=" M 866.31 249.54 C 867.90 249.60 869.40 249.89 869.41 251.82 C 869.88 250.81 870.50 249.89 871.27 249.07 C 871.25 250.12 871.22 252.22 871.20 253.26 C 869.44 253.23 867.68 253.21 865.94 253.18 C 866.07 251.97 866.18 250.75 866.31 249.54 Z" />
<path fill="#b8d79e" d=" M 872.22 250.23 C 873.49 250.54 873.68 251.31 872.80 252.54 C 871.51 252.22 871.32 251.45 872.22 250.23 Z" />
<path fill="#6bb642" d=" M 746.57 275.76 C 756.99 275.81 767.41 275.71 777.82 275.81 C 777.81 280.28 777.80 284.75 777.85 289.23 C 767.42 289.35 757.00 289.24 746.57 289.29 C 746.62 284.78 746.62 280.27 746.57 275.76 Z" />
<path fill="#a4d29c" d=" M 753.76 280.05 C 755.15 280.11 756.55 280.17 757.96 280.24 C 757.91 281.48 757.86 282.73 757.82 283.98 C 756.34 283.91 754.88 283.85 753.42 283.80 C 753.55 282.55 753.66 281.30 753.76 280.05 Z" />
<path fill="#bad3a0" d=" M 760.02 280.40 C 764.01 280.42 768.01 280.45 772.01 280.43 C 772.02 281.50 772.04 282.58 772.07 283.65 C 767.58 283.59 763.09 283.71 758.61 283.77 C 759.07 282.64 759.54 281.52 760.02 280.40 Z" />
<path fill="#70b54f" d=" M 767.11 281.20 C 768.73 280.70 769.27 281.26 768.73 282.89 C 767.09 283.39 766.55 282.82 767.11 281.20 Z" />
<path fill="#242424" d=" M 298.53 594.57 C 301.61 597.19 304.62 600.81 309.05 600.74 C 327.38 601.06 345.73 600.58 364.06 600.97 C 363.86 603.93 363.62 606.89 363.28 609.85 C 342.17 609.80 321.07 609.91 299.97 609.79 C 298.24 604.89 298.38 599.68 298.53 594.57 Z" />
<path fill="#060606" d=" M 364.80 601.19 C 488.21 601.06 611.62 601.19 735.03 601.13 C 775.93 601.25 816.83 600.95 857.73 601.25 C 858.06 602.24 858.38 603.25 858.69 604.28 C 859.00 605.97 859.32 607.68 859.71 609.37 C 859.25 609.08 858.33 608.51 857.87 608.22 C 857.23 607.06 856.66 605.88 856.04 604.74 C 693.05 604.80 530.05 604.79 367.06 604.75 C 364.64 605.36 365.17 602.70 364.80 601.19 Z" />
<path fill="#c4c4c6" d=" M 225.14 609.85 C 236.46 609.82 247.79 609.84 259.12 609.84 C 259.21 614.60 259.19 619.37 259.07 624.15 C 248.24 624.30 237.40 623.98 226.57 624.36 L 225.54 624.40 C 224.45 619.61 224.85 614.69 225.14 609.85 Z" />
<path fill="#b3b3b6" d=" M 558.50 609.83 C 576.69 609.79 594.88 609.82 613.07 609.82 C 612.95 612.52 612.84 615.23 612.74 617.95 C 596.72 618.39 580.68 617.74 564.65 618.24 C 561.13 616.93 559.18 613.34 558.50 609.83 Z" />
<path fill="#c4c4c6" d=" M 613.07 609.82 C 631.14 609.83 649.21 609.79 667.28 609.84 C 666.02 614.23 662.59 618.59 657.63 618.55 C 641.45 619.10 625.24 618.36 609.05 618.99 C 596.05 619.13 583.06 618.92 570.06 619.06 C 568.21 619.09 566.40 618.77 564.65 618.24 C 580.68 617.74 596.72 618.39 612.74 617.95 C 612.84 615.23 612.95 612.52 613.07 609.82 Z" />
<path fill="#eaedf1" d=" M 968.77 609.84 C 979.05 609.97 989.35 609.53 999.62 610.09 C 999.54 614.08 999.70 618.07 999.56 622.07 C 999.72 623.12 999.31 623.85 998.34 624.25 C 988.48 624.33 978.61 624.25 968.76 624.25 C 968.55 619.45 968.56 614.64 968.77 609.84 Z" />
<path fill="#b3b3b6" d=" M 226.57 624.36 C 237.40 623.98 248.24 624.30 259.07 624.15 C 323.73 624.39 388.39 624.17 453.04 624.26 C 624.95 624.24 796.85 624.25 968.76 624.25 C 978.61 624.25 988.48 624.33 998.34 624.25 C 986.93 631.30 973.18 633.65 959.93 633.25 C 730.96 633.23 501.98 633.25 273.01 633.24 C 264.33 633.16 255.57 633.74 247.00 631.99 C 239.87 630.54 232.69 628.42 226.57 624.36 Z" />
</svg>
