<?xml version="1.0" encoding="UTF-8"?>
<!DOCTYPE svg PUBLIC "-//W3C//DTD SVG 1.1//EN" "http://www.w3.org/Graphics/SVG/1.1/DTD/svg11.dtd">
<!-- Creator: CorelDRAW X6 -->
<svg xmlns="http://www.w3.org/2000/svg" xml:space="preserve" width="100%" height="100%" version="1.1" style="shape-rendering:geometricPrecision; text-rendering:geometricPrecision; image-rendering:optimizeQuality; fill-rule:evenodd; clip-rule:evenodd"
viewBox="0 0 3000000 2000000"
 xmlns:xlink="http://www.w3.org/1999/xlink"
 enable-background="new 0 0 612 792"
 xmlns:dc="http://purl.org/dc/elements/1.1/"
 xmlns:cc="http://creativecommons.org/ns#"
 xmlns:rdf="http://www.w3.org/1999/02/22-rdf-syntax-ns#"
 xmlns:svg="http://www.w3.org/2000/svg"
 xmlns:inkscape="http://www.inkscape.org/namespaces/inkscape">
 <defs>
  <style type="text/css">
   <![CDATA[
    .fil0 {fill:#FEFEFE}
    .fil1 {fill:#00ACED}
    .fil2 {fill:#3C5B99}
    .fil3 {fill:#DC4B38}
    .fil4 {fill:white}
    .fil5 {fill:#FEFEFE;fill-rule:nonzero}
   ]]>
  </style>
 </defs>
 <g id="Layer_x0020_1">
  <metadata id="CorelCorpID_0Corel-Layer"/>
  <g id="_677765776">
   <ellipse class="fil0" cx="1500875" cy="1054969" rx="286875" ry="286874"/>
   <g>
    <g>
     <path class="fil1" d="M1500861 1051698l-241136 -139341c24439,-42366 59587,-77545 101917,-102005 133173,-76958 303465,-31286 380352,102005l-241133 139341z"/>
     <path class="fil2" d="M1498109 1056783l0 278683c-48875,0 -96890,-12877 -139219,-37335 -133173,-76957 -178803,-247396 -101915,-380687l241134 139339z"/>
     <path class="fil3" d="M1503688 1056786l241133 -139342c24437,42367 37304,90424 37304,139342 0,153913 -124660,278683 -278437,278683l0 -278683z"/>
    </g>
    <path class="fil0" d="M1479961 957291c-14303,0 -27617,-4196 -38826,-11389 1981,234 3997,354 6042,354 11867,0 22788,-4053 31457,-10852 -11084,-205 -20438,-7534 -23661,-17606 1546,296 3133,455 4765,455 2310,0 4548,-310 6673,-889 -11587,-2329 -20318,-12575 -20318,-24858 0,-107 1,-213 3,-319 3415,1899 7320,3040 11472,3171 -6796,-4546 -11268,-12305 -11268,-21100 0,-4647 1249,-9001 3429,-12745 12493,15337 31156,25430 52207,26487 -432,-1856 -656,-3790 -656,-5777 0,-14000 11341,-25351 25329,-25351 7285,0 13868,3079 18488,8006 5770,-1137 11190,-3247 16084,-6152 -1891,5920 -5907,10888 -11137,14026 5124,-613 10005,-1976 14548,-3992 -3396,5083 -7691,9549 -12639,13123 49,1087 73,2180 73,3279 0,33500 -25476,72129 -72065,72129z"/>
    <path class="fil4" d="M1379031 1098450c0,0 -10957,-932 -10957,9091l0 13839 20465 0 -2557 20602 -17908 0 0 53480 -10862 0 -10457 0 0 -53480 -18313 0 0 -20602 18313 0 0 -15784c0,0 -973,-27441 25665,-26857 7373,162 13000,308 17287,436l0 19275 -10676 0z"/>
    <path class="fil4" d="M1688774 1131997l0 -12296 -7736 0 0 12296 -12273 0 0 7735 12273 0 0 12735 7736 0 0 -12735 12724 0 0 -7735 -12724 0zm-58911 59039c-13091,0 -22530,-8271 -22530,-18237 0,-9754 11086,-18179 24172,-18033 14503,0 23160,9041 23160,18538 0,9962 -8076,17732 -24802,17732zm-15201 -79760c-1519,-11553 4372,-20380 13149,-20119 8785,266 16291,9737 17808,21279 1519,11549 -3541,18964 -12326,18711 -8776,-265 -17118,-8332 -18631,-19871zm37463 37890c-10511,-7685 -13082,-12016 -3036,-19790 5652,-4381 9617,-10317 9617,-17533 0,-7854 -3205,-14892 -9236,-18529l8550 0 7275 -7287 -32581 0c-20336,0 -30307,12120 -30307,25541 0,13710 9395,24474 27762,24474 -2855,5754 -1704,11047 2952,14839 -31361,0 -38066,13759 -38066,24372 0,13740 15778,21909 34720,21909 25878,0 36167,-13732 36167,-25010 0,-9186 -3426,-15207 -13817,-22986z"/>
   </g>
  </g>
  <path class="fil5" d="M965141 552341l9208 0 0 -28575c2116,529 4656,635 7408,635 8996,0 16933,-2646 21802,-7832 3598,-3704 5503,-8784 5503,-15240 0,-6349 -2328,-11535 -6244,-14922 -4233,-3810 -10901,-5927 -20003,-5927 -7408,0 -13229,635 -17674,1376l0 70485zm9208 -63817c1587,-424 4656,-741 8678,-741 10160,0 16828,4551 16828,13970 0,9842 -6774,15240 -17886,15240 -3069,0 -5609,-212 -7620,-741l0 -27728z"/>
  <path id="1" class="fil5" d="M1041299 499954c-14182,0 -25400,10054 -25400,27199 0,16192 10689,26352 24553,26352 12382,0 25506,-8255 25506,-27199 0,-15663 -9949,-26352 -24659,-26352zm-212 6985c11007,0 15346,11006 15346,19685 0,11535 -6668,19896 -15558,19896 -9101,0 -15557,-8466 -15557,-19685 0,-9736 4762,-19896 15769,-19896z"/>
  <polygon id="2" class="fil5" points="1078827,552341 1088140,552341 1088140,477200 1078827,477200 "/>
  <polygon id="3" class="fil5" points="1104926,552341 1114239,552341 1114239,477200 1104926,477200 "/>
  <path id="4" class="fil5" d="M1124251 501118l18945 47201c423,1165 635,1905 635,2435 0,529 -318,1270 -741,2222 -2117,4762 -5292,8361 -7832,10372 -2752,2328 -5821,3810 -8149,4550l2328 7832c2329,-423 6879,-2011 11430,-6032 6350,-5504 10901,-14500 17569,-32068l13970 -36512 -9843 0 -10160 30056c-1270,3705 -2328,7620 -3281,10690l-211 0c-847,-3070 -2117,-7091 -3281,-10478l-11219 -30268 -10160 0z"/>
  <polygon id="5" class="fil5" points="1205553,552341 1214866,552341 1214866,477200 1205553,477200 "/>
  <path id="6" class="fil5" d="M1272821 528423c106,-953 317,-2434 317,-4339 0,-9420 -4445,-24130 -21166,-24130 -14923,0 -24024,12170 -24024,27622 0,15452 9419,25823 25188,25823 8149,0 13758,-1693 17039,-3175l-1587 -6667c-3493,1482 -7515,2646 -14182,2646 -9313,0 -17357,-5186 -17568,-17780l35983 0zm-35878 -6668c741,-6456 4869,-15134 14288,-15134 10477,0 13017,9208 12912,15134l-27200 0z"/>
  <path id="7" class="fil5" d="M1287912 488841l0 12277 -7937 0 0 7091 7937 0 0 27940c0,6032 953,10583 3599,13335 2222,2540 5715,3915 10054,3915 3598,0 6456,-529 8255,-1270l-423 -6985c-1165,318 -2964,635 -5398,635 -5186,0 -6985,-3598 -6985,-9948l0 -27622 13335 0 0 -7091 -13335 0 0 -14711 -9102 2434z"/>
  <path id="8" class="fil5" d="M1318350 549907c3599,2117 8785,3492 14394,3492 12171,0 19156,-6350 19156,-15345 0,-7620 -4551,-12065 -13441,-15452 -6668,-2540 -9737,-4445 -9737,-8678 0,-3810 3069,-6985 8573,-6985 4762,0 8466,1693 10477,2963l2328 -6773c-2857,-1694 -7408,-3175 -12594,-3175 -11006,0 -17674,6773 -17674,15028 0,6138 4339,11218 13547,14499 6879,2540 9525,4974 9525,9419 0,4234 -3175,7620 -9949,7620 -4656,0 -9525,-1905 -12276,-3704l-2329 7091z"/>
  <path id="9" class="fil5" d="M1381766 501118l18945 47201c423,1165 635,1905 635,2435 0,529 -318,1270 -741,2222 -2117,4762 -5292,8361 -7832,10372 -2752,2328 -5821,3810 -8149,4550l2328 7832c2329,-423 6879,-2011 11430,-6032 6350,-5504 10901,-14500 17569,-32068l13970 -36512 -9843 0 -10160 30056c-1270,3705 -2328,7620 -3281,10690l-211 0c-847,-3070 -2117,-7091 -3281,-10478l-11219 -30268 -10160 0z"/>
  <path id="10" class="fil5" d="M1460147 499954c-14182,0 -25400,10054 -25400,27199 0,16192 10689,26352 24553,26352 12382,0 25506,-8255 25506,-27199 0,-15663 -9949,-26352 -24659,-26352zm-212 6985c11007,0 15346,11006 15346,19685 0,11535 -6668,19896 -15558,19896 -9101,0 -15557,-8466 -15557,-19685 0,-9736 4762,-19896 15769,-19896z"/>
  <path id="11" class="fil5" d="M1540537 501118l-9313 0 0 31432c0,1694 -318,3387 -847,4763 -1693,4127 -6032,8466 -12276,8466 -8467,0 -11430,-6561 -11430,-16298l0 -28363 -9314 0 0 29951c0,17991 9631,22436 17674,22436 9102,0 14500,-5397 16934,-9525l211 0 530 8361 8255 0c-318,-4022 -424,-8678 -424,-13970l0 -37253z"/>
  <path id="12" class="fil5" d="M1577071 549907c3599,2117 8785,3492 14394,3492 12171,0 19156,-6350 19156,-15345 0,-7620 -4551,-12065 -13441,-15452 -6668,-2540 -9737,-4445 -9737,-8678 0,-3810 3069,-6985 8573,-6985 4762,0 8466,1693 10477,2963l2328 -6773c-2857,-1694 -7408,-3175 -12594,-3175 -11006,0 -17674,6773 -17674,15028 0,6138 4339,11218 13547,14499 6879,2540 9525,4974 9525,9419 0,4234 -3175,7620 -9949,7620 -4656,0 -9525,-1905 -12276,-3704l-2329 7091z"/>
  <path id="13" class="fil5" d="M1623702 552341l9313 0 0 -30903c0,-1799 106,-3175 635,-4445 1693,-5080 6456,-9314 12488,-9314 8785,0 11854,6985 11854,15240l0 29422 9313 0 0 -30480c0,-17674 -11007,-21907 -17886,-21907 -3492,0 -6773,1058 -9525,2645 -2857,1588 -5186,3916 -6667,6562l-212 0 0 -31961 -9313 0 0 75141z"/>
  <path id="14" class="fil5" d="M1720391 552341c-635,-3492 -847,-7832 -847,-12277l0 -19155c0,-10266 -3810,-20955 -19473,-20955 -6456,0 -12594,1799 -16828,4550l2117 6139c3598,-2329 8572,-3810 13335,-3810 10477,0 11642,7620 11642,11853l0 1058c-19791,-105 -30798,6668 -30798,19050 0,7409 5292,14711 15663,14711 7303,0 12806,-3598 15664,-7620l317 0 741 6456 8467 0zm-9843 -17251c0,953 -211,2011 -529,2964 -1482,4339 -5715,8572 -12382,8572 -4763,0 -8785,-2857 -8785,-8890 0,-9948 11536,-11747 21696,-11536l0 8890z"/>
  <path id="15" class="fil5" d="M1735695 552341l9207 0 0 -27305c0,-1587 212,-3069 424,-4339 1270,-6985 5926,-11959 12488,-11959 1270,0 2222,106 3175,317l0 -8784c-847,-212 -1588,-317 -2646,-317 -6244,0 -11853,4339 -14182,11218l-423 0 -317 -10054 -8150 0c318,4762 424,9948 424,15981l0 35242z"/>
  <path id="16" class="fil5" d="M1811535 528423c106,-953 317,-2434 317,-4339 0,-9420 -4445,-24130 -21166,-24130 -14923,0 -24024,12170 -24024,27622 0,15452 9419,25823 25188,25823 8149,0 13758,-1693 17039,-3175l-1587 -6667c-3493,1482 -7515,2646 -14182,2646 -9313,0 -17357,-5186 -17568,-17780l35983 0zm-35878 -6668c741,-6456 4869,-15134 14288,-15134 10477,0 13017,9208 12912,15134l-27200 0z"/>
  <path id="17" class="fil5" d="M1841295 501118l18945 47201c423,1165 635,1905 635,2435 0,529 -318,1270 -741,2222 -2117,4762 -5292,8361 -7832,10372 -2752,2328 -5821,3810 -8149,4550l2328 7832c2329,-423 6879,-2011 11430,-6032 6350,-5504 10901,-14500 17569,-32068l13970 -36512 -9843 0 -10160 30056c-1270,3705 -2328,7620 -3281,10690l-211 0c-847,-3070 -2117,-7091 -3281,-10478l-11219 -30268 -10160 0z"/>
  <path id="18" class="fil5" d="M1919676 499954c-14182,0 -25400,10054 -25400,27199 0,16192 10689,26352 24553,26352 12382,0 25506,-8255 25506,-27199 0,-15663 -9949,-26352 -24659,-26352zm-212 6985c11007,0 15346,11006 15346,19685 0,11535 -6668,19896 -15558,19896 -9101,0 -15557,-8466 -15557,-19685 0,-9736 4762,-19896 15769,-19896z"/>
  <path id="19" class="fil5" d="M2000066 501118l-9313 0 0 31432c0,1694 -318,3387 -847,4763 -1693,4127 -6032,8466 -12276,8466 -8467,0 -11430,-6561 -11430,-16298l0 -28363 -9314 0 0 29951c0,17991 9631,22436 17674,22436 9102,0 14500,-5397 16934,-9525l211 0 530 8361 8255 0c-318,-4022 -424,-8678 -424,-13970l0 -37253z"/>
  <path id="20" class="fil5" d="M2016640 552341l9207 0 0 -27305c0,-1587 212,-3069 424,-4339 1270,-6985 5926,-11959 12488,-11959 1270,0 2222,106 3175,317l0 -8784c-847,-212 -1588,-317 -2646,-317 -6244,0 -11853,4339 -14182,11218l-423 0 -317 -10054 -8150 0c318,4762 424,9948 424,15981l0 35242z"/>
  <path id="21" class="fil5" d="M1123628 700507l9207 0 0 -27834 212 0c3069,5080 8996,8043 15769,8043 12065,0 23283,-9101 23283,-27516 0,-15558 -9313,-26035 -21695,-26035 -8361,0 -14394,3704 -18204,9948l-211 0 -424 -8784 -8361 0c212,4868 424,10160 424,16721l0 55457zm9207 -50588c0,-1270 318,-2646 635,-3810 1799,-6985 7726,-11536 14076,-11536 9843,0 15240,8784 15240,19050 0,11747 -5715,19791 -15557,19791 -6668,0 -12277,-4445 -13970,-10901 -212,-1164 -424,-2434 -424,-3810l0 -8784z"/>
  <path id="22" class="fil5" d="M1206665 627165c-14182,0 -25400,10054 -25400,27199 0,16192 10689,26352 24553,26352 12382,0 25506,-8255 25506,-27199 0,-15663 -9949,-26352 -24659,-26352zm-212 6985c11007,0 15346,11006 15346,19685 0,11535 -6668,19896 -15558,19896 -9101,0 -15557,-8466 -15557,-19685 0,-9736 4762,-19896 15769,-19896z"/>
  <polygon id="23" class="fil5" points="1244193,679552 1253506,679552 1253506,604411 1244193,604411 "/>
  <polygon id="24" class="fil5" points="1270292,679552 1279605,679552 1279605,604411 1270292,604411 "/>
  <path id="25" class="fil5" d="M1292792 677118c3599,2117 8785,3492 14394,3492 12171,0 19156,-6350 19156,-15345 0,-7620 -4551,-12065 -13441,-15452 -6668,-2540 -9737,-4445 -9737,-8678 0,-3810 3069,-6985 8573,-6985 4762,0 8466,1693 10477,2963l2328 -6773c-2857,-1694 -7408,-3175 -12594,-3175 -11006,0 -17674,6773 -17674,15028 0,6138 4339,11218 13547,14499 6879,2540 9525,4974 9525,9419 0,4234 -3175,7620 -9949,7620 -4656,0 -9525,-1905 -12276,-3704l-2329 7091z"/>
  <path id="26" class="fil5" d="M1404151 655634c106,-953 317,-2434 317,-4339 0,-9420 -4445,-24130 -21166,-24130 -14923,0 -24024,12170 -24024,27622 0,15452 9419,25823 25188,25823 8149,0 13758,-1693 17039,-3175l-1587 -6667c-3493,1482 -7515,2646 -14182,2646 -9313,0 -17357,-5186 -17568,-17780l35983 0zm-35878 -6668c741,-6456 4869,-15134 14288,-15134 10477,0 13017,9208 12912,15134l-27200 0z"/>
  <path id="27" class="fil5" d="M1410776 628329l19473 51223 8890 0 20108 -51223 -9736 0 -9949 28786c-1693,4657 -3175,8890 -4339,13124l-317 0c-1059,-4234 -2434,-8467 -4128,-13124l-10054 -28786 -9948 0z"/>
  <path id="28" class="fil5" d="M1509264 655634c106,-953 317,-2434 317,-4339 0,-9420 -4445,-24130 -21166,-24130 -14923,0 -24024,12170 -24024,27622 0,15452 9419,25823 25188,25823 8149,0 13758,-1693 17039,-3175l-1587 -6667c-3493,1482 -7515,2646 -14182,2646 -9313,0 -17357,-5186 -17568,-17780l35983 0zm-35878 -6668c741,-6456 4869,-15134 14288,-15134 10477,0 13017,9208 12912,15134l-27200 0z"/>
  <path id="29" class="fil5" d="M1522239 679552l9207 0 0 -27305c0,-1587 212,-3069 424,-4339 1270,-6985 5926,-11959 12488,-11959 1270,0 2222,106 3175,317l0 -8784c-847,-212 -1588,-317 -2646,-317 -6244,0 -11853,4339 -14182,11218l-423 0 -317 -10054 -8150 0c318,4762 424,9948 424,15981l0 35242z"/>
  <path id="30" class="fil5" d="M1553840 628329l18945 47201c423,1165 635,1905 635,2435 0,529 -318,1270 -741,2222 -2117,4762 -5292,8361 -7832,10372 -2752,2328 -5821,3810 -8149,4550l2328 7832c2329,-423 6879,-2011 11430,-6032 6350,-5504 10901,-14500 17569,-32068l13970 -36512 -9843 0 -10160 30056c-1270,3705 -2328,7620 -3281,10690l-211 0c-847,-3070 -2117,-7091 -3281,-10478l-11219 -30268 -10160 0z"/>
  <path id="31" class="fil5" d="M1607032 628329l15452 51223 8466 0 8255 -24342c1799,-5503 3387,-10795 4657,-16933l212 0c1270,6033 2751,11113 4550,16828l7832 24447 8467 0 16510 -51223 -9208 0 -7302 25717c-1694,6033 -3070,11430 -3916,16616l-318 0c-1164,-5186 -2646,-10583 -4550,-16722l-7938 -25611 -7832 0 -8360 26141c-1694,5503 -3387,11006 -4551,16192l-318 0c-952,-5292 -2328,-10583 -3810,-16298l-6773 -26035 -9525 0z"/>
  <path id="32" class="fil5" d="M1691868 679552l9313 0 0 -30903c0,-1799 106,-3175 635,-4445 1693,-5080 6456,-9314 12488,-9314 8785,0 11854,6985 11854,15240l0 29422 9313 0 0 -30480c0,-17674 -11007,-21907 -17886,-21907 -3492,0 -6773,1058 -9525,2645 -2857,1588 -5186,3916 -6667,6562l-212 0 0 -31961 -9313 0 0 75141z"/>
  <path id="33" class="fil5" d="M1792896 655634c106,-953 317,-2434 317,-4339 0,-9420 -4445,-24130 -21166,-24130 -14923,0 -24024,12170 -24024,27622 0,15452 9419,25823 25188,25823 8149,0 13758,-1693 17039,-3175l-1587 -6667c-3493,1482 -7515,2646 -14182,2646 -9313,0 -17357,-5186 -17568,-17780l35983 0zm-35878 -6668c741,-6456 4869,-15134 14288,-15134 10477,0 13017,9208 12912,15134l-27200 0z"/>
  <path id="34" class="fil5" d="M1805871 679552l9207 0 0 -27305c0,-1587 212,-3069 424,-4339 1270,-6985 5926,-11959 12488,-11959 1270,0 2222,106 3175,317l0 -8784c-847,-212 -1588,-317 -2646,-317 -6244,0 -11853,4339 -14182,11218l-423 0 -317 -10054 -8150 0c318,4762 424,9948 424,15981l0 35242z"/>
  <path id="35" class="fil5" d="M1881711 655634c106,-953 317,-2434 317,-4339 0,-9420 -4445,-24130 -21166,-24130 -14923,0 -24024,12170 -24024,27622 0,15452 9419,25823 25188,25823 8149,0 13758,-1693 17039,-3175l-1587 -6667c-3493,1482 -7515,2646 -14182,2646 -9313,0 -17357,-5186 -17568,-17780l35983 0zm-35878 -6668c741,-6456 4869,-15134 14288,-15134 10477,0 13017,9208 12912,15134l-27200 0z"/>
 </g>
</svg>
