<?xml version="1.0" encoding="UTF-8"?>
<!DOCTYPE svg PUBLIC "-//W3C//DTD SVG 1.1//EN" "http://www.w3.org/Graphics/SVG/1.1/DTD/svg11.dtd">
<!-- Creator: CorelDRAW X6 -->
<svg xmlns="http://www.w3.org/2000/svg" xml:space="preserve" width="300mm" height="200mm" version="1.1" style="shape-rendering:geometricPrecision; text-rendering:geometricPrecision; image-rendering:optimizeQuality; fill-rule:evenodd; clip-rule:evenodd"
viewBox="0 0 30000 20000"
 xmlns:xlink="http://www.w3.org/1999/xlink"
 enable-background="new 0 0 612 792"
 xmlns:dc="http://purl.org/dc/elements/1.1/"
 xmlns:cc="http://creativecommons.org/ns#"
 xmlns:rdf="http://www.w3.org/1999/02/22-rdf-syntax-ns#"
 xmlns:svg="http://www.w3.org/2000/svg"
 xmlns:inkscape="http://www.inkscape.org/namespaces/inkscape">
 <defs>
  <style type="text/css">
   <![CDATA[
    .fil1 {fill:#FEFEFE}
    .fil2 {fill:#00ACED}
    .fil0 {fill:#397DB9}
    .fil3 {fill:#3C5B99}
    .fil4 {fill:#DC4B38}
    .fil5 {fill:white}
    .fil6 {fill:#FEFEFE;fill-rule:nonzero}
   ]]>
  </style>
 </defs>
 <g id="Layer_x0020_1">
  <metadata id="CorelCorpID_0Corel-Layer"/>
  <rect class="fil0" width="30000" height="20000"/>
  <g id="_677767816">
   <circle class="fil1" cx="15000" cy="11000" r="3825"/>
   <g>
    <g>
     <path class="fil2" d="M15000 10956l-3215 -1858c326,-565 795,-1034 1359,-1360 1776,-1026 4046,-417 5071,1360l-3215 1858z"/>
     <path class="fil3" d="M14963 11024l0 3716c-652,0 -1292,-172 -1856,-498 -1776,-1026 -2384,-3299 -1359,-5076l3215 1858z"/>
     <path class="fil4" d="M15038 11024l3215 -1858c326,565 497,1206 497,1858 0,2052 -1662,3716 -3713,3716l0 -3716z"/>
    </g>
    <path class="fil1" d="M14721 9698c-191,0 -368,-56 -518,-152 26,3 53,5 81,5 158,0 304,-54 419,-145 -148,-3 -273,-100 -315,-235 21,4 42,6 64,6 31,0 61,-4 89,-12 -155,-31 -271,-168 -271,-331 0,-1 0,-3 0,-4 46,25 98,41 153,42 -91,-61 -150,-164 -150,-281 0,-62 17,-120 46,-170 167,205 415,339 696,353 -6,-25 -9,-51 -9,-77 0,-187 151,-338 338,-338 97,0 185,41 247,107 77,-15 149,-43 214,-82 -25,79 -79,145 -148,187 68,-8 133,-26 194,-53 -45,68 -103,127 -169,175 1,15 1,29 1,44 0,447 -340,962 -961,962z"/>
    <path class="fil5" d="M13375 11580c0,0 -146,-12 -146,121l0 185 273 0 -34 275 -239 0 0 713 -145 0 -139 0 0 -713 -244 0 0 -275 244 0 0 -210c0,0 -13,-366 342,-358 98,2 173,4 230,6l0 257 -142 0z"/>
    <path class="fil5" d="M17505 12027l0 -164 -103 0 0 164 -164 0 0 103 164 0 0 170 103 0 0 -170 170 0 0 -103 -170 0zm-785 787c-175,0 -300,-110 -300,-243 0,-130 148,-242 322,-240 193,0 309,121 309,247 0,133 -108,236 -331,236zm-203 -1063c-20,-154 58,-272 175,-268 117,4 217,130 237,284 20,154 -47,253 -164,249 -117,-4 -228,-111 -248,-265zm500 505c-140,-102 -174,-160 -40,-264 75,-58 128,-138 128,-234 0,-105 -43,-199 -123,-247l114 0 97 -97 -434 0c-271,0 -404,162 -404,341 0,183 125,326 370,326 -38,77 -23,147 39,198 -418,0 -508,183 -508,325 0,183 210,292 463,292 345,0 482,-183 482,-333 0,-122 -46,-203 -184,-306z"/>
   </g>
  </g>
  <path class="fil6" d="M8481 4580l92 0 0 -286c21,5 47,6 74,6 90,0 169,-26 218,-78 36,-37 55,-88 55,-152 0,-63 -23,-115 -62,-149 -42,-38 -109,-59 -200,-59 -74,0 -132,6 -177,14l0 705zm92 -638c16,-4 47,-7 87,-7 102,0 168,46 168,140 0,98 -68,152 -179,152 -31,0 -56,-2 -76,-7l0 -277z"/>
  <path id="1" class="fil6" d="M9243 4056c-142,0 -254,101 -254,272 0,162 107,264 246,264 124,0 255,-83 255,-272 0,-157 -99,-264 -247,-264zm-2 70c110,0 153,110 153,197 0,115 -67,199 -156,199 -91,0 -156,-85 -156,-197 0,-97 48,-199 158,-199z"/>
  <polygon id="2" class="fil6" points="9618,4580 9711,4580 9711,3829 9618,3829 "/>
  <polygon id="3" class="fil6" points="9879,4580 9972,4580 9972,3829 9879,3829 "/>
  <path id="4" class="fil6" d="M10072 4068l189 472c4,12 6,19 6,24 0,5 -3,13 -7,22 -21,48 -53,84 -78,104 -28,23 -58,38 -81,46l23 78c23,-4 69,-20 114,-60 64,-55 109,-145 176,-321l140 -365 -98 0 -102 301c-13,37 -23,76 -33,107l-2 0c-8,-31 -21,-71 -33,-105l-112 -303 -102 0z"/>
  <polygon id="5" class="fil6" points="10885,4580 10978,4580 10978,3829 10885,3829 "/>
  <path id="6" class="fil6" d="M11558 4341c1,-10 3,-24 3,-43 0,-94 -44,-241 -212,-241 -149,0 -240,122 -240,276 0,155 94,258 252,258 81,0 138,-17 170,-32l-16 -67c-35,15 -75,26 -142,26 -93,0 -174,-52 -176,-178l360 0zm-359 -67c7,-65 49,-151 143,-151 105,0 130,92 129,151l-272 0z"/>
  <path id="7" class="fil6" d="M11709 3945l0 123 -79 0 0 71 79 0 0 279c0,60 10,106 36,133 22,25 57,39 101,39 36,0 65,-5 83,-13l-4 -70c-12,3 -30,6 -54,6 -52,0 -70,-36 -70,-99l0 -276 133 0 0 -71 -133 0 0 -147 -91 24z"/>
  <path id="8" class="fil6" d="M12013 4556c36,21 88,35 144,35 122,0 192,-64 192,-153 0,-76 -46,-121 -134,-155 -67,-25 -97,-44 -97,-87 0,-38 31,-70 86,-70 48,0 85,17 105,30l23 -68c-29,-17 -74,-32 -126,-32 -110,0 -177,68 -177,150 0,61 43,112 135,145 69,25 95,50 95,94 0,42 -32,76 -99,76 -47,0 -95,-19 -123,-37l-23 71z"/>
  <path id="9" class="fil6" d="M12647 4068l189 472c4,12 6,19 6,24 0,5 -3,13 -7,22 -21,48 -53,84 -78,104 -28,23 -58,38 -81,46l23 78c23,-4 69,-20 114,-60 64,-55 109,-145 176,-321l140 -365 -98 0 -102 301c-13,37 -23,76 -33,107l-2 0c-8,-31 -21,-71 -33,-105l-112 -303 -102 0z"/>
  <path id="10" class="fil6" d="M13431 4056c-142,0 -254,101 -254,272 0,162 107,264 246,264 124,0 255,-83 255,-272 0,-157 -99,-264 -247,-264zm-2 70c110,0 153,110 153,197 0,115 -67,199 -156,199 -91,0 -156,-85 -156,-197 0,-97 48,-199 158,-199z"/>
  <path id="11" class="fil6" d="M14235 4068l-93 0 0 314c0,17 -3,34 -8,48 -17,41 -60,85 -123,85 -85,0 -114,-66 -114,-163l0 -284 -93 0 0 300c0,180 96,224 177,224 91,0 145,-54 169,-95l2 0 5 84 83 0c-3,-40 -4,-87 -4,-140l0 -373z"/>
  <path id="12" class="fil6" d="M14600 4556c36,21 88,35 144,35 122,0 192,-64 192,-153 0,-76 -46,-121 -134,-155 -67,-25 -97,-44 -97,-87 0,-38 31,-70 86,-70 48,0 85,17 105,30l23 -68c-29,-17 -74,-32 -126,-32 -110,0 -177,68 -177,150 0,61 43,112 135,145 69,25 95,50 95,94 0,42 -32,76 -99,76 -47,0 -95,-19 -123,-37l-23 71z"/>
  <path id="13" class="fil6" d="M15067 4580l93 0 0 -309c0,-18 1,-32 6,-44 17,-51 65,-93 125,-93 88,0 119,70 119,152l0 294 93 0 0 -305c0,-177 -110,-219 -179,-219 -35,0 -68,11 -95,26 -29,16 -52,39 -67,66l-2 0 0 -320 -93 0 0 751z"/>
  <path id="14" class="fil6" d="M16033 4580c-6,-35 -8,-78 -8,-123l0 -192c0,-103 -38,-210 -195,-210 -65,0 -126,18 -168,46l21 61c36,-23 86,-38 133,-38 105,0 116,76 116,119l0 11c-198,-1 -308,67 -308,191 0,74 53,147 157,147 73,0 128,-36 157,-76l3 0 7 65 85 0zm-98 -173c0,10 -2,20 -5,30 -15,43 -57,86 -124,86 -48,0 -88,-29 -88,-89 0,-99 115,-117 217,-115l0 89z"/>
  <path id="15" class="fil6" d="M16186 4580l92 0 0 -273c0,-16 2,-31 4,-43 13,-70 59,-120 125,-120 13,0 22,1 32,3l0 -88c-8,-2 -16,-3 -26,-3 -62,0 -119,43 -142,112l-4 0 -3 -101 -82 0c3,48 4,99 4,160l0 352z"/>
  <path id="16" class="fil6" d="M16945 4341c1,-10 3,-24 3,-43 0,-94 -44,-241 -212,-241 -149,0 -240,122 -240,276 0,155 94,258 252,258 81,0 138,-17 170,-32l-16 -67c-35,15 -75,26 -142,26 -93,0 -174,-52 -176,-178l360 0zm-359 -67c7,-65 49,-151 143,-151 105,0 130,92 129,151l-272 0z"/>
  <path id="17" class="fil6" d="M17242 4068l189 472c4,12 6,19 6,24 0,5 -3,13 -7,22 -21,48 -53,84 -78,104 -28,23 -58,38 -81,46l23 78c23,-4 69,-20 114,-60 64,-55 109,-145 176,-321l140 -365 -98 0 -102 301c-13,37 -23,76 -33,107l-2 0c-8,-31 -21,-71 -33,-105l-112 -303 -102 0z"/>
  <path id="18" class="fil6" d="M18026 4056c-142,0 -254,101 -254,272 0,162 107,264 246,264 124,0 255,-83 255,-272 0,-157 -99,-264 -247,-264zm-2 70c110,0 153,110 153,197 0,115 -67,199 -156,199 -91,0 -156,-85 -156,-197 0,-97 48,-199 158,-199z"/>
  <path id="19" class="fil6" d="M18830 4068l-93 0 0 314c0,17 -3,34 -8,48 -17,41 -60,85 -123,85 -85,0 -114,-66 -114,-163l0 -284 -93 0 0 300c0,180 96,224 177,224 91,0 145,-54 169,-95l2 0 5 84 83 0c-3,-40 -4,-87 -4,-140l0 -373z"/>
  <path id="20" class="fil6" d="M18996 4580l92 0 0 -273c0,-16 2,-31 4,-43 13,-70 59,-120 125,-120 13,0 22,1 32,3l0 -88c-8,-2 -16,-3 -26,-3 -62,0 -119,43 -142,112l-4 0 -3 -101 -82 0c3,48 4,99 4,160l0 352z"/>
  <path id="21" class="fil6" d="M19589 4790l92 0 0 -278 2 0c31,51 90,80 158,80 121,0 233,-91 233,-275 0,-156 -93,-260 -217,-260 -84,0 -144,37 -182,99l-2 0 -4 -88 -84 0c2,49 4,102 4,167l0 555zm92 -506c0,-13 3,-26 6,-38 18,-70 77,-115 141,-115 98,0 152,88 152,191 0,117 -57,198 -156,198 -67,0 -123,-44 -140,-109 -2,-12 -4,-24 -4,-38l0 -88z"/>
  <path id="22" class="fil6" d="M20419 4056c-142,0 -254,101 -254,272 0,162 107,264 246,264 124,0 255,-83 255,-272 0,-157 -99,-264 -247,-264zm-2 70c110,0 153,110 153,197 0,115 -67,199 -156,199 -91,0 -156,-85 -156,-197 0,-97 48,-199 158,-199z"/>
  <polygon id="23" class="fil6" points="20794,4580 20888,4580 20888,3829 20794,3829 "/>
  <polygon id="24" class="fil6" points="21055,4580 21149,4580 21149,3829 21055,3829 "/>
  <path id="25" class="fil6" d="M21280 4556c36,21 88,35 144,35 122,0 192,-64 192,-153 0,-76 -46,-121 -134,-155 -67,-25 -97,-44 -97,-87 0,-38 31,-70 86,-70 48,0 85,17 105,30l23 -68c-29,-17 -74,-32 -126,-32 -110,0 -177,68 -177,150 0,61 43,112 135,145 69,25 95,50 95,94 0,42 -32,76 -99,76 -47,0 -95,-19 -123,-37l-23 71z"/>
  <path id="26" class="fil6" d="M12871 5613c1,-10 3,-24 3,-43 0,-94 -44,-241 -212,-241 -149,0 -240,122 -240,276 0,155 94,258 252,258 81,0 138,-17 170,-32l-16 -67c-35,15 -75,26 -142,26 -93,0 -174,-52 -176,-178l360 0zm-359 -67c7,-65 49,-151 143,-151 105,0 130,92 129,151l-272 0z"/>
  <path id="27" class="fil6" d="M12937 5340l195 512 89 0 201 -512 -97 0 -99 288c-17,47 -32,89 -43,131l-3 0c-11,-42 -24,-85 -41,-131l-101 -288 -99 0z"/>
  <path id="28" class="fil6" d="M13922 5613c1,-10 3,-24 3,-43 0,-94 -44,-241 -212,-241 -149,0 -240,122 -240,276 0,155 94,258 252,258 81,0 138,-17 170,-32l-16 -67c-35,15 -75,26 -142,26 -93,0 -174,-52 -176,-178l360 0zm-359 -67c7,-65 49,-151 143,-151 105,0 130,92 129,151l-272 0z"/>
  <path id="29" class="fil6" d="M14052 5852l92 0 0 -273c0,-16 2,-31 4,-43 13,-70 59,-120 125,-120 13,0 22,1 32,3l0 -88c-8,-2 -16,-3 -26,-3 -62,0 -119,43 -142,112l-4 0 -3 -101 -82 0c3,48 4,99 4,160l0 352z"/>
  <path id="30" class="fil6" d="M14368 5340l189 472c4,12 6,19 6,24 0,5 -3,13 -7,22 -21,48 -53,84 -78,104 -28,23 -58,38 -81,46l23 78c23,-4 69,-20 114,-60 64,-55 109,-145 176,-321l140 -365 -98 0 -102 301c-13,37 -23,76 -33,107l-2 0c-8,-31 -21,-71 -33,-105l-112 -303 -102 0z"/>
  <path id="31" class="fil6" d="M14900 5340l155 512 85 0 83 -243c18,-55 34,-108 47,-169l2 0c13,60 28,111 46,168l78 244 85 0 165 -512 -92 0 -73 257c-17,60 -31,114 -39,166l-3 0c-12,-52 -26,-106 -46,-167l-79 -256 -78 0 -84 261c-17,55 -34,110 -46,162l-3 0c-10,-53 -23,-106 -38,-163l-68 -260 -95 0z"/>
  <path id="32" class="fil6" d="M15748 5852l93 0 0 -309c0,-18 1,-32 6,-44 17,-51 65,-93 125,-93 88,0 119,70 119,152l0 294 93 0 0 -305c0,-177 -110,-219 -179,-219 -35,0 -68,11 -95,26 -29,16 -52,39 -67,66l-2 0 0 -320 -93 0 0 751z"/>
  <path id="33" class="fil6" d="M16758 5613c1,-10 3,-24 3,-43 0,-94 -44,-241 -212,-241 -149,0 -240,122 -240,276 0,155 94,258 252,258 81,0 138,-17 170,-32l-16 -67c-35,15 -75,26 -142,26 -93,0 -174,-52 -176,-178l360 0zm-359 -67c7,-65 49,-151 143,-151 105,0 130,92 129,151l-272 0z"/>
  <path id="34" class="fil6" d="M16888 5852l92 0 0 -273c0,-16 2,-31 4,-43 13,-70 59,-120 125,-120 13,0 22,1 32,3l0 -88c-8,-2 -16,-3 -26,-3 -62,0 -119,43 -142,112l-4 0 -3 -101 -82 0c3,48 4,99 4,160l0 352z"/>
  <path id="35" class="fil6" d="M17647 5613c1,-10 3,-24 3,-43 0,-94 -44,-241 -212,-241 -149,0 -240,122 -240,276 0,155 94,258 252,258 81,0 138,-17 170,-32l-16 -67c-35,15 -75,26 -142,26 -93,0 -174,-52 -176,-178l360 0zm-359 -67c7,-65 49,-151 143,-151 105,0 130,92 129,151l-272 0z"/>
 </g>
</svg>
